<svg viewBox="0 0 50 50" xmlns="http://www.w3.org/2000/svg" xmlns:xlink="http://www.w3.org/1999/xlink" width="50.000000" height="50.000000" fill="none" customFrame="#000000">
	<defs>
		<filter id="pixso_custom_mask_type_outline">
			<feColorMatrix type="matrix" values="0 0 0 0 1 0 0 0 0 1 0 0 0 0 1 0 0 0 1 0 " />
		</filter>
	</defs>
	<mask id="mask_0" width="50.000000" height="50.000000" x="0.000000" y="0.000000" maskUnits="userSpaceOnUse">
		<g filter="url(#pixso_custom_mask_type_outline)">
			<rect id="Rectangle Copy" width="50.000000" height="50.000000" x="0.000000" y="0.000000" rx="12.000000" fill="rgb(255,255,255)" />
			<rect id="Rectangle Copy" width="50.000000" height="50.000000" x="0.000000" y="0.000000" rx="12.000000" stroke="rgb(150.96,150.96,150.96)" stroke-opacity="0" stroke-width="0" />
		</g>
	</mask>
	<g id="Company's logo">
		<g id="Group 2">
			<rect id="Rectangle Copy" width="50.000000" height="50.000000" x="0.000000" y="0.000000" rx="12.000000" fill="rgb(63,140,255)" />
			<rect id="Rectangle Copy" width="50.000000" height="50.000000" x="0.000000" y="0.000000" rx="12.000000" stroke="rgb(150.96,150.96,150.96)" stroke-opacity="0" stroke-width="0" />
			<g mask="url(#mask_0)" />
		</g>
		<g id="Group" />
		<path id="Fill 2" d="M17.9999 25C16.3499 25 15 23.6501 15 22.0002C15 20.3499 16.3499 19 17.9999 19C19.6499 19 21 20.3499 21 22.0002C21 23.6501 19.6499 25 17.9999 25Z" fill="rgb(255,255,255)" fill-rule="evenodd" />
		<path id="Fill 3" d="M43 18.3448C43 13.2052 38.725 9 33.5 9L33.4998 9C28.275 9 24 13.2052 24 18.3448L24 32C24 32 42.9983 29.9193 43 18.346C43 18.3456 43 18.3452 43 18.3448Z" fill="rgb(255,255,255)" fill-rule="evenodd" />
		<path id="Fill 4" d="M7 35.4993L7 35.4978C7.00183 27.4474 21 26 21 26L21 35.4993C21 39.0746 17.8499 42 14 42C10.1499 42 7 39.0746 7 35.4993ZM12.1605 35.4993C12.1605 36.4388 12.9882 37.2076 14 37.2076C15.0116 37.2076 15.8392 36.4388 15.8392 35.4993C15.8392 34.5596 15.0116 33.791 14 33.791C12.9882 33.791 12.1605 34.5596 12.1605 35.4993Z" fill="rgb(255,255,255)" fill-rule="evenodd" />
	</g>
</svg>
